<?xml version="1.0" standalone="no"?>
<!DOCTYPE svg PUBLIC "-//W3C//DTD SVG 20010904//EN"
 "http://www.w3.org/TR/2001/REC-SVG-20010904/DTD/svg10.dtd">
<svg version="1.0" xmlns="http://www.w3.org/2000/svg"
 width="300.000000pt" height="96.000000pt" viewBox="0 0 300.000000 96.000000"
 preserveAspectRatio="xMidYMid meet">
<metadata>
Created by potrace 1.10, written by Peter Selinger 2001-2011
</metadata>
<g transform="translate(0.000000,96.000000) scale(0.100000,-0.100000)"
fill="#000000" stroke="none">
<path d="M132 827 c-21 -22 -21 -31 -22 -292 0 -149 0 -289 0 -312 0 -29 6
-49 20 -63 19 -19 33 -20 375 -20 342 0 356 1 375 20 19 19 20 33 20 335 0
302 -1 316 -20 335 -19 19 -33 20 -373 20 l-354 0 -21 -23z m731 -335 l2 -322
-360 0 -360 0 2 322 c1 178 3 324 3 325 0 2 160 2 355 0 l356 -2 2 -323z"/>
<path d="M315 783 c-49 -8 -93 -18 -96 -21 -4 -4 1 -56 12 -117 10 -60 18
-116 19 -122 0 -7 6 -13 14 -13 7 0 16 -8 18 -17 4 -16 17 -18 99 -17 l94 2 3
136 3 136 -25 0 c-18 0 -26 6 -28 22 -4 28 -7 28 -113 11z m95 -18 c0 -12 -14
-15 -65 -15 l-65 0 0 -112 c0 -62 -4 -108 -8 -103 -11 12 -36 205 -28 213 6 6
118 29 149 31 9 1 17 -6 17 -14z m50 -150 l0 -115 -80 0 -80 0 0 115 0 115 80
0 80 0 0 -115z"/>
<path d="M322 658 l3 -43 58 -3 57 -3 0 46 0 45 -61 0 -60 0 3 -42z m98 2 c0
-28 -2 -30 -40 -30 -38 0 -40 2 -40 30 0 28 2 30 40 30 38 0 40 -2 40 -30z"/>
<path d="M403 571 c-10 -16 -9 -24 6 -43 l19 -23 13 27 c9 22 9 30 -1 43 -16
20 -23 19 -37 -4z"/>
<path d="M552 774 c-26 -18 -28 -36 -7 -54 9 -7 14 -18 12 -24 -2 -6 -1 -21 4
-32 6 -17 1 -26 -22 -43 -31 -23 -37 -52 -15 -70 7 -6 11 -22 9 -35 -7 -34 30
-58 66 -44 14 5 53 7 87 3 66 -7 91 7 81 45 -3 10 1 24 9 31 22 18 16 47 -16
70 -23 17 -27 26 -20 40 6 10 7 24 5 32 -3 7 1 20 10 27 8 7 15 19 15 26 0 19
-46 47 -62 38 -17 -11 -107 -13 -114 -2 -7 12 -17 10 -42 -8z m156 -38 c23
-22 18 -87 -8 -108 -27 -22 -68 -23 -98 -2 -38 27 -27 110 18 127 22 9 73 -1
88 -17z m-104 -131 c26 -20 61 -19 97 2 28 17 30 17 51 -5 17 -17 20 -24 10
-34 -9 -9 -15 -8 -27 8 -13 17 -14 17 -15 2 0 -10 -7 -18 -16 -18 -9 0 -21
-13 -27 -30 -6 -16 -18 -30 -27 -30 -9 0 -21 14 -27 30 -6 17 -18 30 -27 30
-9 0 -16 8 -16 18 -1 15 -2 15 -15 -2 -12 -15 -18 -17 -27 -8 -9 9 -7 16 7 32
21 24 33 25 59 5z m-4 -70 c17 -20 5 -45 -20 -45 -11 0 -23 7 -26 15 -6 15 11
45 26 45 4 0 13 -7 20 -15z m138 6 c21 -13 10 -46 -16 -49 -27 -4 -40 22 -22
43 14 17 20 18 38 6z"/>
<path d="M626 677 c-25 -18 -11 -47 24 -47 35 0 49 29 24 47 -10 7 -21 13 -24
13 -3 0 -14 -6 -24 -13z"/>
<path d="M577 433 c-12 -12 -8 -178 5 -191 7 -7 42 -12 88 -12 103 0 110 8
110 123 l0 87 -98 0 c-54 0 -102 -3 -105 -7z m161 -9 c20 -6 22 -12 22 -79 0
-91 -7 -97 -97 -93 l-68 3 -3 82 c-2 71 -1 82 15 86 27 7 105 7 131 1z"/>
<path d="M620 376 l0 -34 55 -4 55 -3 0 38 0 37 -55 0 -55 0 0 -34z"/>
<path d="M614 307 c-17 -19 11 -43 29 -25 11 10 12 15 1 25 -15 16 -16 16 -30
0z"/>
<path d="M279 403 c-15 -16 -36 -35 -47 -43 -13 -9 -22 -29 -24 -50 -3 -31 0
-35 22 -38 14 -2 29 -10 33 -18 11 -19 56 -18 63 1 8 21 107 21 124 0 17 -21
36 -19 70 7 46 33 38 108 -10 108 -9 0 -29 14 -45 30 -26 27 -34 30 -95 30
-59 0 -68 -3 -91 -27z m81 -8 c0 -11 -11 -15 -36 -15 -31 0 -35 2 -24 15 7 8
23 15 36 15 15 0 24 -6 24 -15z m80 0 c11 -13 7 -15 -29 -15 -30 0 -41 4 -41
15 0 10 10 15 29 15 16 0 34 -7 41 -15z m80 -55 c21 -21 24 -32 13 -43 -3 -4
-12 2 -20 13 -18 25 -38 25 -63 0 -14 -14 -33 -20 -63 -20 -31 0 -49 6 -62 20
-10 11 -24 20 -32 20 -7 0 -21 -9 -30 -20 -23 -26 -33 -25 -33 3 0 42 17 47
147 47 110 0 125 -2 143 -20z m-202 -53 c4 -20 -25 -34 -40 -19 -15 15 -1 44
19 40 10 -2 19 -11 21 -21z m188 12 c10 -17 -23 -46 -37 -32 -7 7 -9 19 -6 27
7 18 33 21 43 5z"/>
<path d="M1846 689 c-24 -19 -26 -27 -26 -89 0 -38 -4 -71 -8 -74 -5 -3 -19 9
-31 25 -80 108 -247 57 -276 -83 -4 -20 -11 -28 -26 -28 -12 0 -37 -13 -56
-30 -41 -36 -63 -38 -99 -7 -23 20 -28 32 -28 73 -2 98 51 129 134 82 30 -18
44 -21 57 -12 32 20 39 42 23 71 -26 46 -65 67 -133 71 -79 4 -119 -16 -169
-87 -35 -49 -37 -51 -48 -31 -8 15 -8 29 1 55 11 30 10 37 -6 55 -23 25 -57
26 -78 2 -20 -22 -21 -45 -5 -72 10 -15 10 -22 0 -32 -8 -8 -12 -52 -12 -138
0 -110 2 -129 18 -143 43 -39 83 -7 92 73 l5 45 24 -42 c61 -107 190 -134 280
-59 l40 34 36 -34 c65 -61 155 -58 217 7 20 21 39 39 41 39 3 0 10 -14 17 -30
12 -30 54 -60 83 -60 8 0 25 9 39 19 24 19 25 19 54 0 38 -25 62 -24 91 3 l23
22 39 -22 c64 -36 136 -27 185 24 l33 34 28 -30 c60 -62 155 -64 211 -4 l32
33 40 -39 c41 -42 68 -49 116 -30 56 21 53 81 -5 102 -27 9 -29 14 -29 59 0
42 3 51 23 58 58 22 60 78 4 104 -18 9 -41 25 -52 37 -27 30 -49 25 -89 -22
-31 -38 -38 -41 -54 -31 -29 17 -86 26 -122 18 -18 -4 -49 -22 -70 -41 l-37
-33 -28 29 c-52 55 -124 62 -192 20 -33 -20 -77 -92 -65 -105 4 -5 1 -5 -5 -1
-9 5 -13 35 -13 96 0 80 -3 92 -24 117 l-24 28 -29 -21 -28 -21 -3 -139 c-1
-76 -5 -146 -8 -154 -14 -38 -24 24 -24 151 0 117 -2 138 -17 151 -32 27 -40
28 -67 7z m48 -179 c1 -164 1 -165 24 -168 33 -5 25 -38 -8 -34 -53 5 -60 30
-60 201 0 87 3 161 7 165 4 4 13 5 21 4 12 -2 15 -34 16 -168z m138 10 c-2
-85 1 -160 5 -166 4 -7 17 -13 27 -15 25 -5 31 -25 10 -33 -24 -9 -67 16 -75
44 -9 33 -11 315 -2 324 4 4 14 5 22 4 13 -3 15 -26 13 -158z m-894 128 c-3
-25 -36 -37 -48 -17 -13 20 0 39 27 39 20 0 24 -4 21 -22z m291 -4 c39 -15 76
-55 64 -68 -12 -12 -33 -5 -57 19 -46 46 -141 25 -167 -37 -19 -45 -14 -137 9
-167 46 -62 127 -64 167 -5 17 25 25 30 38 22 15 -8 16 -12 2 -38 -31 -59
-132 -81 -198 -43 -42 24 -77 94 -77 154 0 133 103 210 219 163z m1301 -44 c0
-29 2 -30 46 -30 38 0 45 -3 42 -17 -3 -14 -12 -17 -46 -15 l-42 2 0 -89 c0
-101 9 -117 60 -106 23 5 30 3 30 -9 0 -21 -15 -28 -58 -28 -59 0 -72 26 -72
139 0 92 -1 94 -22 91 -15 -2 -24 3 -26 15 -3 13 3 17 22 17 22 0 26 4 26 30
0 23 4 30 20 30 16 0 20 -7 20 -30z m-1595 -160 c0 -128 0 -130 -22 -130 -23
0 -23 2 -23 130 0 128 0 130 23 130 22 0 22 -2 22 -130z m607 101 c31 -28 33
-33 33 -99 0 -61 -3 -74 -24 -96 -49 -52 -133 -52 -182 0 -21 22 -24 35 -24
96 0 66 2 71 33 99 26 24 41 29 82 29 41 0 56 -5 82 -29z m570 4 c24 -24 43
-88 32 -107 -3 -4 -46 -8 -96 -8 -78 0 -89 -2 -84 -16 3 -9 6 -20 6 -25 0 -19
41 -49 69 -49 15 0 40 10 55 21 20 16 30 19 38 11 16 -16 -16 -49 -58 -61 -78
-21 -144 26 -152 109 -9 94 35 150 118 150 37 0 53 -5 72 -25z m285 -1 c25
-25 25 -28 9 -39 -14 -11 -21 -9 -42 12 -20 20 -32 24 -57 19 -46 -9 -67 -39
-67 -98 0 -87 71 -128 127 -72 23 24 53 27 53 5 0 -16 -60 -61 -83 -62 -93 -5
-137 38 -137 136 0 51 3 60 34 91 30 30 40 34 85 34 43 0 57 -5 78 -26z m-30
-65 c28 -11 34 -11 51 4 25 23 32 13 32 -45 0 -53 -4 -56 -32 -31 -18 16 -21
16 -63 -7 -42 -23 -46 -23 -62 -8 -32 33 -12 116 26 105 9 -3 30 -11 48 -18z"/>
<path d="M1624 528 c-42 -20 -57 -94 -29 -147 38 -75 145 -41 145 46 0 59 -10
83 -41 98 -32 17 -46 18 -75 3z m60 -44 c28 -27 14 -104 -19 -104 -23 0 -45
30 -45 60 0 27 22 60 40 60 5 0 16 -7 24 -16z"/>
<path d="M2192 523 c-11 -10 -23 -28 -26 -39 -6 -21 -4 -22 66 -20 67 2 73 4
70 21 -6 31 -33 55 -62 55 -15 0 -37 -8 -48 -17z"/>
</g>
</svg>
