<?xml version="1.0" standalone="no"?>
<!DOCTYPE svg PUBLIC "-//W3C//DTD SVG 20010904//EN"
 "http://www.w3.org/TR/2001/REC-SVG-20010904/DTD/svg10.dtd">
<svg version="1.0" xmlns="http://www.w3.org/2000/svg"
 width="309.000000pt" height="99.000000pt" viewBox="0 0 309.000000 99.000000"
 preserveAspectRatio="xMidYMid meet">
<metadata>
Created by potrace 1.10, written by Peter Selinger 2001-2011
</metadata>
<g transform="translate(0.000000,99.000000) scale(0.100000,-0.100000)"
fill="#000000" stroke="none">
<path d="M154 868 c-41 -19 -44 -45 -44 -364 l0 -306 29 -29 29 -29 355 0
c334 0 356 1 378 19 l24 19 3 326 3 326 -25 25 -25 25 -353 -1 c-221 0 -361
-4 -374 -11z m736 -358 l0 -330 -370 0 -370 0 0 330 0 330 370 0 370 0 0 -330z"/>
<path d="M301 804 c-40 -7 -75 -15 -77 -17 -4 -4 18 -161 32 -229 3 -16 12
-28 20 -28 8 0 14 -9 14 -20 0 -20 5 -21 103 -18 l102 3 0 140 0 140 -25 0
c-18 0 -26 6 -28 23 -4 26 -27 27 -141 6z m121 -19 c-2 -5 -9 -8 -15 -7 -7 2
-36 1 -64 -3 l-53 -6 0 -110 c0 -60 -4 -109 -9 -109 -4 0 -14 48 -21 108 -8
59 -14 109 -14 112 -1 8 115 28 149 27 17 -1 28 -6 27 -12z m58 -150 l0 -125
-84 0 c-78 0 -84 1 -90 23 -8 30 -8 212 1 220 3 4 44 7 90 7 l83 0 0 -125z"/>
<path d="M337 723 c-4 -3 -7 -26 -7 -50 l0 -43 60 0 60 0 0 50 0 50 -53 0
c-30 0 -57 -3 -60 -7z m101 -45 c3 -27 2 -28 -42 -28 -45 0 -46 1 -46 31 0 29
1 30 43 27 38 -3 42 -6 45 -30z"/>
<path d="M416 589 c-14 -21 -14 -24 1 -41 16 -18 17 -18 37 2 l20 20 -21 21
-21 21 -16 -23z m29 -29 c-5 -8 -11 -8 -17 -2 -6 6 -7 16 -3 22 5 8 11 8 17 2
6 -6 7 -16 3 -22z"/>
<path d="M334 588 c-3 -4 9 -8 27 -8 18 0 29 3 25 7 -10 10 -46 11 -52 1z"/>
<path d="M330 550 c0 -5 9 -10 20 -10 11 0 20 5 20 10 0 6 -9 10 -20 10 -11 0
-20 -4 -20 -10z"/>
<path d="M562 798 c-15 -15 -15 -41 -1 -55 13 -13 21 -93 9 -93 -5 0 -16 -7
-24 -16 -18 -17 -22 -64 -6 -64 6 0 10 -15 10 -33 0 -18 5 -38 12 -45 14 -14
54 -16 62 -4 6 10 74 8 99 -3 10 -4 29 -3 43 3 19 9 24 19 24 47 0 19 5 35 10
35 20 0 10 49 -15 68 -19 15 -24 27 -21 56 2 21 8 42 15 49 14 14 14 40 -1 55
-13 13 -50 16 -61 5 -4 -3 -25 -6 -47 -6 -22 0 -43 3 -47 6 -11 11 -48 8 -61
-5z m36 -28 c-15 -23 -28 -26 -28 -7 0 17 10 27 27 27 11 0 11 -4 1 -20z m170
-3 c5 -23 -10 -21 -26 4 -12 18 -11 20 5 17 10 -2 19 -11 21 -21z m-41 -13
c20 -20 24 -31 19 -57 -9 -46 -33 -67 -77 -67 -29 0 -42 6 -58 26 -63 80 44
170 116 98z m-107 -129 c33 -19 64 -19 101 0 22 12 34 13 49 5 23 -12 27 -50
5 -50 -8 0 -15 7 -15 15 0 8 -4 15 -10 15 -5 0 -10 -6 -10 -14 0 -8 -9 -18
-20 -21 -13 -4 -23 -18 -27 -36 -6 -32 -43 -43 -43 -12 0 20 -28 53 -46 53 -8
0 -11 6 -8 15 4 8 1 15 -5 15 -6 0 -11 -7 -11 -15 0 -8 -7 -15 -15 -15 -21 0
-19 37 3 49 22 13 22 13 52 -4z m8 -98 c-4 -33 -52 -31 -56 2 -2 13 2 27 9 32
20 12 51 -9 47 -34z m140 4 c-2 -20 -8 -26 -28 -26 -30 0 -40 33 -15 51 25 19
47 6 43 -25z"/>
<path d="M620 720 c0 -5 7 -10 15 -10 8 0 15 5 15 10 0 6 -7 10 -15 10 -8 0
-15 -4 -15 -10z"/>
<path d="M640 695 c-19 -23 -4 -45 29 -45 32 0 48 24 30 46 -15 18 -43 18 -59
-1z"/>
<path d="M602 452 c-9 -6 -12 -35 -10 -108 l3 -99 82 -3 c122 -4 124 -2 121
116 l-3 97 -90 3 c-49 1 -96 -2 -103 -6z m176 -99 l-3 -88 -82 -3 -83 -3 0 91
0 90 85 0 86 0 -3 -87z"/>
<path d="M640 385 l0 -35 50 0 c28 0 53 0 57 0 4 0 7 15 7 33 l0 32 -57 3 -57
3 0 -36z"/>
<path d="M634 317 c-17 -19 11 -43 29 -25 11 10 12 15 1 25 -15 16 -16 16 -30
0z"/>
<path d="M742 321 c4 -13 18 -16 19 -4 0 4 -5 9 -11 12 -7 2 -11 -2 -8 -8z"/>
<path d="M715 291 c-6 -11 9 -23 19 -14 9 9 7 23 -3 23 -6 0 -12 -4 -16 -9z"/>
<path d="M373 442 c-50 -2 -66 -7 -80 -25 -10 -12 -30 -27 -44 -34 -19 -8 -28
-21 -32 -49 -7 -43 -3 -54 22 -54 10 0 24 -7 31 -15 7 -8 23 -15 37 -15 13 0
26 7 29 15 5 11 22 15 64 15 42 0 59 -4 64 -15 8 -22 42 -18 76 7 22 16 30 30
30 54 0 35 -12 49 -53 59 -15 4 -32 16 -37 26 -15 28 -38 34 -107 31z m-3 -38
c0 -9 -11 -14 -36 -14 -38 0 -38 15 0 30 25 9 36 4 36 -16z m91 0 c9 -12 4
-14 -35 -14 -32 0 -46 4 -46 13 0 8 2 16 5 19 9 9 64 -4 76 -18z m70 -44 c11
-7 19 -21 19 -37 l0 -27 -20 22 c-26 27 -45 28 -67 2 -13 -15 -30 -20 -64 -20
-33 0 -51 5 -64 20 -10 11 -24 20 -32 20 -7 0 -22 -9 -33 -20 -11 -11 -22 -20
-25 -20 -7 0 -6 56 2 63 11 11 263 8 284 -3z m-203 -63 c4 -20 -25 -34 -40
-19 -15 15 -1 44 19 40 10 -2 19 -11 21 -21z m190 0 c4 -20 -25 -34 -40 -19
-15 15 -1 44 19 40 10 -2 19 -11 21 -21z"/>
<path d="M1116 709 c-27 -22 -34 -57 -14 -77 9 -9 9 -18 0 -37 -19 -41 -16
-255 4 -283 35 -51 94 -14 94 60 0 24 3 48 6 51 4 4 21 -17 38 -45 54 -89 150
-121 242 -79 23 10 48 29 57 41 l16 23 40 -36 c73 -65 160 -62 228 8 l41 43
12 -29 c26 -63 87 -86 131 -50 22 18 24 18 53 0 42 -25 68 -24 96 6 l23 24 42
-24 c69 -41 162 -26 200 31 l16 25 36 -31 c19 -17 46 -36 60 -41 60 -23 144 3
172 53 17 30 31 36 31 14 0 -26 68 -76 104 -76 38 0 86 33 86 59 0 21 -27 48
-55 53 -17 3 -20 12 -23 59 -3 55 -2 57 27 67 42 15 57 46 36 78 -8 13 -22 24
-30 24 -8 0 -30 14 -48 30 -19 17 -42 30 -50 30 -8 0 -31 -18 -49 -41 l-34
-41 -48 16 c-25 9 -56 16 -68 16 -33 0 -105 -38 -122 -66 l-17 -24 -37 39
c-66 69 -165 63 -226 -12 -26 -33 -31 -48 -34 -109 -7 -118 -22 -55 -22 93 0
129 -1 137 -23 157 -29 28 -38 27 -65 -1 -20 -21 -22 -35 -24 -170 -4 -196
-21 -195 -28 2 -4 128 -8 152 -24 170 -24 27 -48 27 -72 0 -15 -16 -20 -40
-23 -105 l-3 -84 -28 38 c-28 39 -89 72 -133 72 -40 -1 -106 -38 -126 -71 -11
-18 -23 -50 -26 -72 -6 -32 -10 -38 -26 -34 -12 3 -34 -7 -60 -29 -45 -37 -55
-40 -93 -23 -33 16 -50 59 -43 116 9 79 64 105 134 62 43 -27 80 -19 89 18 15
58 -54 113 -143 113 -89 0 -144 -34 -178 -111 -10 -21 -21 -39 -24 -39 -3 0
-12 14 -20 31 -10 23 -10 34 -2 42 17 17 13 52 -6 69 -32 27 -40 28 -67 7z
m836 -181 c3 -172 3 -173 26 -176 36 -5 24 -38 -13 -35 -51 4 -55 20 -55 210
0 166 1 173 20 173 19 0 20 -8 22 -172z m145 12 c1 -85 2 -161 3 -168 0 -7 11
-17 25 -22 29 -11 32 -25 9 -34 -24 -9 -67 16 -75 44 -9 33 -11 325 -2 334 4
4 14 5 23 4 13 -3 15 -27 17 -158z m-924 137 c8 -21 -8 -39 -29 -35 -11 2 -20
13 -22 26 -3 18 1 22 21 22 14 0 27 -6 30 -13z m301 -11 c18 -8 41 -24 50 -37
15 -22 15 -25 1 -35 -13 -9 -21 -6 -45 17 -34 34 -90 39 -130 12 -32 -22 -38
-30 -51 -76 -14 -51 -2 -122 27 -157 44 -52 134 -47 167 10 21 34 52 31 41 -4
-23 -77 -139 -104 -220 -51 -53 34 -81 158 -53 232 32 84 128 125 213 89z
m1336 -46 c0 -29 2 -30 45 -30 39 0 45 -3 45 -21 0 -19 -5 -21 -45 -17 l-45 3
0 -91 c0 -103 9 -120 58 -109 21 4 31 2 35 -9 7 -18 -39 -36 -77 -29 -45 9
-56 37 -56 144 l0 96 -25 -5 c-20 -3 -25 0 -25 17 0 16 6 21 25 21 21 0 25 5
25 30 0 23 4 30 20 30 16 0 20 -7 20 -30z m-1640 -165 c0 -133 0 -135 -22
-135 -23 0 -23 2 -23 135 0 133 0 135 23 135 22 0 22 -2 22 -135z m628 101
c22 -22 27 -37 30 -94 4 -62 2 -71 -23 -100 -48 -57 -135 -61 -185 -7 -34 37
-40 136 -10 183 26 41 52 53 113 48 36 -2 56 -10 75 -30z m577 12 c28 -25 53
-104 37 -120 -5 -5 -48 -8 -96 -6 -84 3 -86 2 -86 -20 0 -32 43 -72 78 -72 16
0 41 10 56 21 20 16 30 19 38 11 16 -16 -16 -49 -57 -61 -104 -29 -181 58
-155 174 19 86 123 126 185 73z m289 1 c14 -11 26 -26 26 -34 0 -22 -28 -25
-42 -3 -21 32 -84 29 -114 -6 -28 -32 -32 -91 -9 -135 25 -49 81 -56 122 -15
30 30 60 26 43 -6 -40 -75 -167 -68 -207 11 -17 33 -16 114 2 149 30 59 127
80 179 39z m-25 -74 c25 -12 31 -12 47 0 35 27 44 18 44 -40 0 -56 -8 -67 -30
-40 -17 20 -32 19 -74 -6 -48 -28 -76 -14 -76 39 0 61 32 77 89 47z"/>
<path d="M1679 549 c-54 -20 -69 -130 -24 -174 55 -56 135 -15 135 69 0 60
-16 93 -53 106 -16 5 -30 10 -31 9 -1 0 -13 -5 -27 -10z m65 -55 c3 -9 6 -31
6 -49 0 -41 -28 -62 -60 -45 -23 12 -28 78 -8 98 17 17 55 15 62 -4z"/>
<path d="M2273 550 c-21 -9 -43 -38 -43 -59 0 -7 28 -11 74 -11 l75 0 -11 30
c-15 45 -48 59 -95 40z"/>
</g>
</svg>
